<?xml version="1.0" encoding="UTF-8"?><svg id="Layer_1" xmlns="http://www.w3.org/2000/svg" viewBox="0 0 77.18 141.73"><defs><style>.cls-1{fill:#fff;}</style></defs><polygon class="cls-1" points="51.37 62.74 41.06 75.53 67.85 115.74 73.75 108.15 51.37 62.74"/><path class="cls-1" d="M27.76,6.42l-3.12-6.42s-6.66,10.18-6.66,14.14c0,6.28,2.95,10.42,2.95,10.42h9.13l1.62-9.85h-5.87l1.93-8.29Z"/><polygon class="cls-1" points="68.08 90.86 77.18 79.17 72.92 70.53 62.88 80.32 68.08 90.86"/><polygon class="cls-1" points="31.75 82.98 29.19 30.16 21.69 30.16 17.36 100.77 31.75 82.98"/><polygon class="cls-1" points="39.38 77.6 0 126.29 0 141.73 49.73 93.14 39.38 77.6"/></svg>